<svg xmlns:xlink="http://www.w3.org/1999/xlink" data-name="Layer 1" id="Layer_1"
    viewBox="0 0 390 390" xmlns="http://www.w3.org/2000/svg">
    <defs>
        <linearGradient gradientTransform="matrix(-1, 0, 0, 1, -1446.81, -61.19)"
            gradientUnits="userSpaceOnUse" id="linear-gradient" x1="-1513.82" x2="-1513.82"
            y1="174.26" y2="391.46">
            <stop offset="0" stop-color="#fff" />
            <stop offset="1" stop-color="#dadad1" />
        </linearGradient>
        <linearGradient gradientTransform="matrix(-1, 0, 0, 1, -1446.81, -61.19)"
            gradientUnits="userSpaceOnUse" id="linear-gradient-2" x1="-1508.29" x2="-1508.29"
            y1="281.69" y2="318.26">
            <stop offset="0.01" stop-color="#615f5f" />
            <stop offset="1" stop-color="#383535" />
        </linearGradient>
        <linearGradient id="linear-gradient-3" x1="-1508.29" x2="-1508.29" y1="338.54" y2="375.12"
            xlink:href="#linear-gradient-2" />
        <linearGradient gradientTransform="matrix(-1, 0, 0, 1, -1446.81, -61.19)"
            gradientUnits="userSpaceOnUse" id="linear-gradient-4" x1="-1655.53" x2="-1655.53"
            y1="285.85" y2="409.91">
            <stop offset="0" stop-color="#ffd0a5" />
            <stop offset="1" stop-color="#eab480" />
        </linearGradient>
        <linearGradient id="linear-gradient-5" x1="-1632.73" x2="-1632.73" y1="81.91" y2="236.8"
            xlink:href="#linear-gradient-4" />
        <linearGradient gradientTransform="matrix(-1, 0, 0, 1, -1446.81, -61.19)"
            gradientUnits="userSpaceOnUse" id="linear-gradient-6" x1="-1759.08" x2="-1759.08"
            y1="181.21" y2="231.39">
            <stop offset="0" stop-color="#ffd0a5" />
            <stop offset="1" stop-color="#e6a06a" />
        </linearGradient>
        <linearGradient id="linear-gradient-7" x1="-1771" x2="-1771" y1="231.39" y2="281.57"
            xlink:href="#linear-gradient-6" />
        <linearGradient id="linear-gradient-8" x1="-1764.43" x2="-1764.43" y1="281.57" y2="331.74"
            xlink:href="#linear-gradient-6" />
        <linearGradient id="linear-gradient-9" x1="-1759.08" x2="-1759.08" y1="331.74" y2="381.92"
            xlink:href="#linear-gradient-6" />
        <linearGradient id="linear-gradient-10" x1="-1767.16" x2="-1767.16" y1="182.38" y2="231.29"
            xlink:href="#linear-gradient-4" />
        <linearGradient id="linear-gradient-11" x1="-1779.63" x2="-1779.63" y1="232.56" y2="281.47"
            xlink:href="#linear-gradient-4" />
        <linearGradient id="linear-gradient-12" x1="-1769.83" x2="-1769.83" y1="282.74" y2="331.64"
            xlink:href="#linear-gradient-4" />
        <linearGradient id="linear-gradient-13" x1="-1763.32" x2="-1763.32" y1="332.92" y2="381.82"
            xlink:href="#linear-gradient-4" />
        <linearGradient gradientTransform="matrix(-1, 0, 0, 1, -1446.81, -61.19)"
            gradientUnits="userSpaceOnUse" id="linear-gradient-14" x1="-1634.54" x2="-1634.54"
            y1="93.84" y2="140.68">
            <stop offset="0" stop-color="#ffead7" />
            <stop offset="1" stop-color="#ffcba0" />
        </linearGradient>
    </defs>
    <path style="fill:url(#linear-gradient)"
        d="M36.05,100.63H98a18.55,18.55,0,0,1,18.55,18.55V312.27A18.55,18.55,0,0,1,98,330.83H36.05A18.56,18.56,0,0,1,17.5,312.27V119.18a18.56,18.56,0,0,1,18.56-18.56Z" />
    <path style="fill:url(#linear-gradient-2)"
        d="M43.19,238.78A18.29,18.29,0,1,0,61.48,220.5,18.29,18.29,0,0,0,43.19,238.78Z" />
    <path style="fill:url(#linear-gradient-3)"
        d="M43.19,295.64a18.29,18.29,0,1,0,18.29-18.29A18.29,18.29,0,0,0,43.19,295.64Z" />
    <path style="fill:url(#linear-gradient-4)"
        d="M184.31,120.35s75.28-.33,96.93-.33S309.1,321.07,287,321.07H150.63c-25.74,0-34-6.32-34-26.39V150.53Z" />
    <path style="fill:#e3ad80"
        d="M264.05,317.52a14.36,14.36,0,0,0,14.48-12.74c-3.48,4.05-8.88,7.91-14.48,7.91H143.68c-5.79,0-17.82-2.31-20-5.59.77,5,11.65,10.42,20.14,10.42Z" />
    <path style="fill:#e3ad80"
        d="M261.58,287.84a24.92,24.92,0,0,1,7-17.29,24.88,24.88,0,0,1-7-17.28V237.66a25,25,0,0,1,10.85-20.6,24.85,24.85,0,0,1-4.28-14V187.48a24.92,24.92,0,0,1,2.93-11.72,25,25,0,0,1-14.84-22.85V137.3a24.94,24.94,0,0,1,6.92-17.25l18.08,0c21.65,0,27.86,201.05,5.71,201.05H268.87a24.87,24.87,0,0,1-7.29-17.62Z" />
    <path style="fill:url(#linear-gradient-5)"
        d="M116.61,120.51v45.85c0,25.87,17.65,56.55,58.28,56.55,59.56,0,80.34-48.78,80.34-103.33V44.88c0-60.16-70.92-55.9-70.92-10.59C184.31,97,141.36,120.51,116.61,120.51Z" />
    <path style="fill:url(#linear-gradient-10)"
        d="M295.48,120H343.3a17.28,17.28,0,0,1,17.28,17.28v15.61A17.29,17.29,0,0,1,343.3,170.2H295.48C276.17,170.2,273.86,120,295.48,120Z" />
    <path style="fill:url(#linear-gradient-11)"
        d="M308.5,170.2h46.72a17.28,17.28,0,0,1,17.28,17.28v15.61a17.29,17.29,0,0,1-17.28,17.29H308.5C289.19,220.38,286.88,170.2,308.5,170.2Z" />
    <path style="fill:url(#linear-gradient-12)"
        d="M295.48,220.38h53.16a17.27,17.27,0,0,1,17.28,17.28v15.61a17.28,17.28,0,0,1-17.28,17.29H295.48C276.17,270.56,273.86,220.38,295.48,220.38Z" />
    <path style="fill:url(#linear-gradient-13)"
        d="M293.14,270.55H338a17.29,17.29,0,0,1,17.28,17.29v15.61A17.28,17.28,0,0,1,338,320.73H293.14C273.84,320.73,271.52,270.55,293.14,270.55Z" />
    <path style="fill:#e3ad80"
        d="M201.56,58.47c-1.69,15.68-8.2,28.23-28.54,24.66h0c6.85-12.58,11.29-28.68,11.29-48.84a42.21,42.21,0,0,1,.22-4.27C196.87,30.9,203.26,42.79,201.56,58.47Z" />
    <path style="fill:url(#linear-gradient-14)"
        d="M184.53,30c11.24.8,17.06,11.64,15.52,25.92S192.53,80.7,175.6,78C173.11,77.56,181.69,29.82,184.53,30Z" />
    <path style="fill:#ffe8d3"
        d="M218.36,10.85c12.25,0,21.93,6,29.95,14.2-6.41-14.19-19-20.58-29.95-20.58s-25.23,5.87-30.65,20.58C195.72,16.86,206.31,10.85,218.36,10.85Z" />
    <path style="fill:#ffe8d3"
        d="M342.71,123.7a14.36,14.36,0,0,1,14.48,12.74c-3.48-4.05-8.88-7.91-14.48-7.91H298.12c-5.79,0-10.24,2.31-12.36,5.6.77-5,4.06-10.43,12.55-10.43Z" />
    <path style="fill:#ffe8d3"
        d="M355.26,173.31a14.36,14.36,0,0,1,14.48,12.74c-3.48-4.05-8.88-7.91-14.48-7.91H310.67c-5.8,0-10.24,2.32-12.36,5.6.77-5,4.05-10.43,12.55-10.43Z" />
    <path style="fill:#ffe8d3"
        d="M348.5,223.7A14.36,14.36,0,0,1,363,236.44c-3.48-4.05-8.88-7.91-14.48-7.91H297.63c-5.79,0-10.23,2.31-12.35,5.59.77-5,4.05-10.42,12.55-10.42Z" />
    <path style="fill:#ffe8d3"
        d="M337.74,274.66a14.36,14.36,0,0,1,14.48,12.74c-3.47-4-8.88-7.91-14.48-7.91H293.15c-5.79,0-10.23,2.32-12.36,5.6.78-5,4.06-10.43,12.55-10.43Z" />
    <path style="fill:#e9a56e"
        d="M342.71,164.63a14.36,14.36,0,0,0,14.48-12.74c-3.48,4.05-8.88,7.91-14.48,7.91H298.12c-5.79,0-10.24-2.32-12.36-5.6.77,5,4.06,10.43,12.55,10.43Z" />
    <path style="fill:#e9a56e"
        d="M355.26,217.87a14.36,14.36,0,0,0,14.48-12.74c-3.48,4.05-8.88,7.91-14.48,7.91H310.67c-5.8,0-10.24-2.32-12.36-5.6.77,5,4.05,10.43,12.55,10.43Z" />
    <path style="fill:#e9a56e"
        d="M348.5,267.58A14.37,14.37,0,0,0,363,254.83c-3.48,4.06-8.88,7.92-14.48,7.92H297.63c-5.79,0-10.23-2.32-12.35-5.6.77,5,4.05,10.43,12.55,10.43Z" />
    <path style="fill:#e9a56e"
        d="M337.74,317.52a14.36,14.36,0,0,0,14.48-12.74c-3.47,4.05-8.88,7.91-14.48,7.91H295.86c-5.79,0-10.23-2.31-12.35-5.59.77,5,4.05,10.42,12.55,10.42Z" />
    <path style="fill:#e9a56e"
        d="M175.16,220.37c-21.91,0-45.55-13.74-51.43-35.34,8.08,17.61,29.22,30.37,51.43,30.37,25.13,0,47.54-13.39,62-30.37C224.23,206.58,204.06,220.37,175.16,220.37Z" />
    <path style="fill:#e9a56e"
        d="M141.7,230.07c29.39,4.25,82.84,32.49,91.25,73.36C230.16,255.55,180.26,230.84,141.7,230.07Z" />
    <path style="fill:#fff"
        d="M92.64,103.89c12.15,0,19.79,8.1,19.79,18.83-4.12-7.54-9-12-19.79-12h-52c-4.54,0-16.34,2.83-19.3,12,0-15.52,12.87-18.83,19.3-18.83Z" />
    <path style="fill:#929699"
        d="M92.64,326.17c12.15,0,19.79-8.11,19.79-18.84-4.12,7.54-9,12-19.79,12h-52c-4.54,0-16.34-2.83-19.3-12,0,15.52,12.87,18.84,19.3,18.84Z" />
    <rect style="fill:url(#linear-gradient-6)" height="50.18" rx="17.28" width="96.62" x="263.96"
        y="120.02" />
    <rect style="fill:url(#linear-gradient-7)" height="50.18" rx="17.28" width="96.63" x="275.88"
        y="170.2" />
    <rect style="fill:url(#linear-gradient-8)" height="50.18" rx="17.28" width="96.62" x="269.3"
        y="220.38" />
    <rect style="fill:url(#linear-gradient-9)" height="50.18" rx="17.28" width="85.94" x="269.3"
        y="270.55" />
    <title>hand-up</title>
</svg>